<svg xmlns="http://www.w3.org/2000/svg" viewBox="0 0 160 160" width="160" height="160" fill="none" stroke-linecap="round" stroke-linejoin="round"><path d="M48,34 H112 A18,18 0 0,1 130,52 V88 A18,18 0 0,1 112,106 H60 L38,118 L48,106 A18,18 0 0,1 30,88 V52 A18,18 0 0,1 48,34 Z" fill="#EFE9DF" stroke="#1C1B19" stroke-width="2"/><path d="M63,64 A5,5 0 1,0 73,64 A5,5 0 1,0 63,64 Z" fill="#2F3BD6"/><path d="M73,64 C73,72 69,77 63,79" fill="none" stroke="#2F3BD6" stroke-width="2.5"/><path d="M85,64 A5,5 0 1,0 95,64 A5,5 0 1,0 85,64 Z" fill="#2F3BD6"/><path d="M95,64 C95,72 91,77 85,79" fill="none" stroke="#2F3BD6" stroke-width="2.5"/></svg>
